<svg width="1680" height="1201" viewBox="0 0 1680 1201" fill="none" xmlns="http://www.w3.org/2000/svg">
<path d="M360.6 480.6C426.874 480.6 480.6 426.874 480.6 360.6C480.6 294.326 426.874 240.6 360.6 240.6C294.326 240.6 240.6 294.326 240.6 360.6C240.6 426.874 294.326 480.6 360.6 480.6Z" fill="#DE2B64"/>
<path d="M361.197 431.645C400.104 431.645 431.645 400.104 431.645 361.197C431.645 322.29 400.104 290.75 361.197 290.75C322.29 290.75 290.749 322.29 290.749 361.197C290.749 400.104 322.29 431.645 361.197 431.645Z" fill="#2D374C"/>
<path d="M361.197 398.212C381.64 398.212 398.212 381.64 398.212 361.197C398.212 340.754 381.64 324.182 361.197 324.182C340.754 324.182 324.182 340.754 324.182 361.197C324.182 381.64 340.754 398.212 361.197 398.212Z" fill="#3855AA"/>
<path d="M840 480.6C906.274 480.6 960 426.874 960 360.6C960 294.326 906.274 240.6 840 240.6C773.726 240.6 720 294.326 720 360.6C720 426.874 773.726 480.6 840 480.6Z" fill="#FF8B61"/>
<path d="M840.597 431.645C879.504 431.645 911.045 400.104 911.045 361.197C911.045 322.29 879.504 290.75 840.597 290.75C801.69 290.75 770.149 322.29 770.149 361.197C770.149 400.104 801.69 431.645 840.597 431.645Z" fill="#2D374C"/>
<path d="M840.597 398.212C861.04 398.212 877.612 381.64 877.612 361.197C877.612 340.754 861.04 324.182 840.597 324.182C820.154 324.182 803.582 340.754 803.582 361.197C803.582 381.64 820.154 398.212 840.597 398.212Z" fill="#F1E3CF"/>
<path d="M1320 720.6C1386.27 720.6 1440 774.326 1440 840.6C1440 906.874 1386.27 960.6 1320 960.6C1253.73 960.6 1200 906.874 1200 840.6C1200 774.326 1253.73 720.6 1320 720.6Z" fill="#FF8B61"/>
<path d="M1320.6 769.555C1359.5 769.555 1391.04 801.096 1391.04 840.003C1391.04 878.91 1359.5 910.451 1320.6 910.451C1281.69 910.451 1250.15 878.91 1250.15 840.003C1250.15 801.096 1281.69 769.555 1320.6 769.555Z" fill="#2D374C"/>
<path d="M1320.6 802.988C1341.04 802.988 1357.61 819.56 1357.61 840.003C1357.61 860.446 1341.04 877.018 1320.6 877.018C1300.15 877.018 1283.58 860.446 1283.58 840.003C1283.58 819.56 1300.15 802.988 1320.6 802.988Z" fill="#F1E3CF"/>
<path d="M1081.77 421.337C1081.77 453.904 1108.17 480.305 1140.74 480.305C1173.3 480.305 1199.71 453.904 1199.71 421.337C1199.71 388.77 1173.3 362.369 1140.74 362.369C1108.17 362.369 1081.77 388.77 1081.77 421.337Z" fill="#DE2B64"/>
<path d="M960.295 421.337C960.295 453.904 986.696 480.305 1019.26 480.305C1051.83 480.305 1078.23 453.904 1078.23 421.337C1078.23 388.77 1051.83 362.369 1019.26 362.369C986.696 362.369 960.295 388.77 960.295 421.337Z" fill="#FF8B61"/>
<path d="M1081.77 302.221C1081.77 334.789 1108.17 361.19 1140.74 361.19C1173.3 361.19 1199.71 334.789 1199.71 302.221C1199.71 269.654 1173.3 243.253 1140.74 243.253C1108.17 243.253 1081.77 269.654 1081.77 302.221Z" fill="#FF8B61"/>
<path d="M960 240.6V300.748C960 333.966 987.061 360.895 1020.44 360.895C1053.82 360.895 1080.88 333.966 1080.88 300.748C1080.88 267.529 1053.82 240.6 1020.44 240.6H960Z" fill="#3855AA"/>
<path d="M1258.97 299.568H1381.62V422.222H1258.97V299.568Z" fill="#F1E3CF"/>
<path d="M1319.4 308.33L1266.52 361.203L1319.4 414.076L1372.27 361.203L1319.4 308.33Z" fill="#3855AA"/>
<path d="M1417 263.598H1344.47C1344.47 303.655 1376.94 336.128 1417 336.128V263.598Z" fill="#DE2B64"/>
<path d="M1417 457.602V385.072C1376.94 385.072 1344.47 417.545 1344.47 457.602H1417Z" fill="#DE2B64"/>
<path d="M1224.77 457.602H1297.3C1297.3 417.545 1264.82 385.072 1224.77 385.072V457.602Z" fill="#DE2B64"/>
<path d="M1224.77 263.598V336.128C1264.82 336.128 1297.3 303.655 1297.3 263.598H1224.77Z" fill="#DE2B64"/>
<path d="M1560.82 995.284L1475.69 1080.47L1560.82 1165.66L1645.94 1080.47L1560.82 995.284Z" fill="#2D374C"/>
<path d="M1591.13 1050.14H1530.51V1110.81H1591.13V1050.14Z" fill="#3855AA"/>
<path d="M1080 240.6C1146.27 240.6 1200 186.874 1200 120.6C1200 54.3259 1146.27 0.600098 1080 0.600098L960 0.600098V120.6C960 186.874 1013.73 240.6 1080 240.6Z" fill="#F1E3CF"/>
<path d="M1031.76 144.118C1071.39 144.118 1103.52 111.99 1103.52 72.3589C1103.52 32.7276 1071.39 0.600098 1031.76 0.600098H960V72.3589C960 111.99 992.128 144.118 1031.76 144.118Z" fill="#2D374C"/>
<path d="M1080 195.072C1120.46 195.072 1153.27 162.27 1153.27 121.806C1153.27 81.3421 1120.46 48.5396 1080 48.5396C1039.54 48.5396 1006.73 81.3421 1006.73 121.806C1006.73 162.27 1039.54 195.072 1080 195.072Z" fill="#3855AA"/>
<path d="M1080 164.696C1103.69 164.696 1122.89 145.494 1122.89 121.806C1122.89 98.1192 1103.69 78.9169 1080 78.9169C1056.31 78.9169 1037.11 98.1192 1037.11 121.806C1037.11 145.494 1056.31 164.696 1080 164.696Z" fill="#2D374C"/>
<path d="M1200 121.203V240.6L1319.4 240.6C1386 240.6 1440 186.604 1440 119.997V0.600098L1320.6 0.600098C1254 0.600098 1200 54.5959 1200 121.203Z" fill="#3855AA"/>
<path d="M1251.86 120.6C1251.86 159.565 1283.45 191.153 1322.41 191.153C1361.38 191.153 1392.96 159.565 1392.96 120.6V50.0474L1322.41 50.0474C1283.45 50.0474 1251.86 81.6349 1251.86 120.6Z" fill="#2D374C"/>
<path d="M1200 193.203V241.203H1248C1287.76 241.203 1320 208.968 1320 169.203V121.203L1272 121.203C1232.24 121.203 1200 153.439 1200 193.203Z" fill="#FF8B61"/>
<path d="M1680 121.203V240.6L1560.6 240.6C1494 240.6 1440 186.604 1440 119.997V0.600098L1559.4 0.600098C1626 0.600098 1680 54.5959 1680 121.203Z" fill="#DE2B64"/>
<path d="M1628.14 120.6C1628.14 159.565 1596.55 191.153 1557.59 191.153C1518.62 191.153 1487.04 159.565 1487.04 120.6V50.0474L1557.59 50.0474C1596.55 50.0474 1628.14 81.6349 1628.14 120.6Z" fill="#2D374C"/>
<path d="M1680 193.203V241.203H1632C1592.24 241.203 1560 208.968 1560 169.203V121.203L1608 121.203C1647.76 121.203 1680 153.439 1680 193.203Z" fill="#FF8B61"/>
<path d="M1560 720.6C1493.73 720.6 1440 774.326 1440 840.6C1440 906.874 1493.73 960.6 1560 960.6H1680V840.6C1680 774.326 1626.27 720.6 1560 720.6Z" fill="#F1E3CF"/>
<path d="M1608.24 817.083C1568.61 817.083 1536.48 849.21 1536.48 888.841C1536.48 928.473 1568.61 960.6 1608.24 960.6H1680V888.841C1680 849.21 1647.87 817.083 1608.24 817.083Z" fill="#DE2B64"/>
<path d="M1560 766.128C1519.54 766.128 1486.73 798.93 1486.73 839.394C1486.73 879.858 1519.54 912.661 1560 912.661C1600.46 912.661 1633.27 879.858 1633.27 839.394C1633.27 798.93 1600.46 766.128 1560 766.128Z" fill="#3855AA"/>
<path d="M1560 796.504C1536.31 796.504 1517.11 815.707 1517.11 839.394C1517.11 863.081 1536.31 882.283 1560 882.283C1583.69 882.283 1602.89 863.081 1602.89 839.394C1602.89 815.707 1583.69 796.504 1560 796.504Z" fill="#2D374C"/>
<path d="M360.295 701.092C415.985 701.092 461.13 655.968 461.13 600.304C461.13 544.641 415.985 499.516 360.295 499.516C304.605 499.516 259.459 544.641 259.459 600.304C259.459 655.968 304.605 701.092 360.295 701.092Z" fill="#F1E3CF"/>
<path d="M480 480.6C480 546.548 426.67 600.009 360.885 600.009C360.885 534.061 414.214 480.6 480 480.6Z" fill="#DE2B64"/>
<path d="M359.115 596.531V600.009H355.646C291.777 600.009 240 548.105 240 484.078V480.6H243.469C307.339 480.6 359.115 532.504 359.115 596.531Z" fill="#3855AA"/>
<path d="M355.646 601.191H359.115V604.669C359.115 668.696 307.339 720.6 243.469 720.6H240V717.122C240 653.095 291.777 601.191 355.646 601.191Z" fill="#DE2B64"/>
<path d="M480 717.122V720.6H476.531C412.661 720.6 360.885 668.696 360.885 604.669V601.191H364.354C428.223 601.191 480 653.095 480 717.122Z" fill="#3855AA"/>
<path d="M1080.04 700.871C1135.73 700.871 1180.87 655.725 1180.87 600.036C1180.87 544.346 1135.73 499.2 1080.04 499.2C1024.35 499.2 979.2 544.346 979.2 600.036C979.2 655.725 1024.35 700.871 1080.04 700.871Z" fill="#F1E3CF"/>
<path d="M1076.5 720.6C1012.16 720.6 960 668.439 960 604.095V600.6H963.495C1027.84 600.6 1080 652.761 1080 717.105V720.6H1076.5Z" fill="#DE2B64"/>
<path d="M1196.5 600.6H1200V604.095C1200 668.439 1147.84 720.6 1083.5 720.6H1080V717.105C1080 652.761 1132.16 600.6 1196.5 600.6Z" fill="#3855AA"/>
<path d="M1083.5 600.6H1080V597.105C1080 532.761 1132.16 480.6 1196.5 480.6H1200V484.095C1200 548.439 1147.84 600.6 1083.5 600.6Z" fill="#DE2B64"/>
<path d="M963.495 480.6C1027.84 480.6 1080 532.761 1080 597.105V600.6H1076.5C1012.16 600.6 960 548.439 960 484.095V480.6H963.495Z" fill="#3855AA"/>
<path d="M19.7293 840.636C19.7293 896.326 64.8748 941.471 120.565 941.471C176.254 941.471 221.4 896.326 221.4 840.636C221.4 784.946 176.254 739.8 120.565 739.8C64.8748 739.8 19.7293 784.946 19.7293 840.636Z" fill="#F1E3CF"/>
<path d="M0 837.105C0 772.761 52.161 720.6 116.505 720.6H120V724.095C120 788.439 67.839 840.6 3.49515 840.6H0V837.105Z" fill="#DE2B64"/>
<path d="M120 957.105V960.6H116.505C52.161 960.6 0 908.439 0 844.095V840.6H3.49515C67.839 840.6 120 892.761 120 957.105Z" fill="#3855AA"/>
<path d="M120 844.095V840.6H123.495C187.839 840.6 240 892.761 240 957.105V960.6H236.505C172.161 960.6 120 908.439 120 844.095Z" fill="#DE2B64"/>
<path d="M240 724.095C240 788.439 187.839 840.6 123.495 840.6H120V837.105C120 772.761 172.161 720.6 236.505 720.6H240V724.095Z" fill="#3855AA"/>
<path d="M720 0.600098V240.6H480C480 108.052 587.452 0.600098 720 0.600098Z" fill="#DE2B64"/>
<path d="M720 104.384V240.6H583.448C583.448 165.37 644.585 104.384 720 104.384Z" fill="#F1E3CF"/>
<path d="M720 178.094V240.6H657.34C657.34 206.079 685.394 178.094 720 178.094Z" fill="#2D374C"/>
<path d="M1680 720.6H1440V480.6C1572.55 480.6 1680 588.052 1680 720.6Z" fill="#DE2B64"/>
<path d="M1576.22 720.6H1440V584.048C1515.23 584.048 1576.22 645.185 1576.22 720.6Z" fill="#F1E3CF"/>
<path d="M1502.51 720.6H1440V657.94C1474.52 657.94 1502.51 685.994 1502.51 720.6Z" fill="#2D374C"/>
<path d="M0 720.6L0 480.6H240C240 613.148 132.548 720.6 0 720.6Z" fill="#3855AA"/>
<path d="M-3.05176e-05 617.152L-3.05176e-05 480.6H136.216C136.216 556.016 75.2301 617.152 -3.05176e-05 617.152Z" fill="#F1E3CF"/>
<path d="M-4.57764e-05 543.26L-4.57764e-05 480.6H62.5061C62.5061 515.206 34.5211 543.26 -4.57764e-05 543.26Z" fill="#2D374C"/>
<path d="M1440 480.6V720.6H1200C1200 588.052 1307.45 480.6 1440 480.6Z" fill="#3855AA"/>
<path d="M1440 584.048V720.6H1303.78C1303.78 645.185 1364.77 584.048 1440 584.048Z" fill="#F1E3CF"/>
<path d="M1440 657.94V720.6H1377.49C1377.49 685.994 1405.48 657.94 1440 657.94Z" fill="#2D374C"/>
<path d="M120.6 0.600098C186.874 0.600098 240.6 54.3259 240.6 120.6C240.6 186.874 186.874 240.6 120.6 240.6C54.3258 240.6 0.599976 186.874 0.599976 120.6C0.599976 54.3259 54.3258 0.600098 120.6 0.600098Z" fill="#3855AA"/>
<path d="M121.19 48.9541C161.084 48.9541 193.425 81.2952 193.425 121.19C193.425 161.085 161.084 193.426 121.19 193.426C81.2948 193.426 48.9537 161.085 48.9537 121.19C48.9537 81.2952 81.2948 48.9541 121.19 48.9541Z" fill="#F1E3CF"/>
<path d="M122.369 83.7451C143.701 83.7451 160.993 101.038 160.993 122.369C160.993 143.701 143.701 160.993 122.369 160.993C101.038 160.993 83.745 143.701 83.745 122.369C83.745 101.038 101.038 83.7451 122.369 83.7451Z" fill="#2D374C"/>
<path d="M240.6 94.9492L240.6 240.6L94.9489 240.6C94.9489 160.159 160.159 94.9492 240.6 94.9492Z" fill="#DE2B64"/>
<path d="M1320 960.6C1386.27 960.6 1440 1014.33 1440 1080.6C1440 1146.87 1386.27 1200.6 1320 1200.6C1253.73 1200.6 1200 1146.87 1200 1080.6C1200 1014.33 1253.73 960.6 1320 960.6Z" fill="#3855AA"/>
<path d="M1320.59 1008.95C1360.48 1008.95 1392.83 1041.3 1392.83 1081.19C1392.83 1121.08 1360.48 1153.43 1320.59 1153.43C1280.69 1153.43 1248.35 1121.08 1248.35 1081.19C1248.35 1041.3 1280.69 1008.95 1320.59 1008.95Z" fill="#F1E3CF"/>
<path d="M1321.77 1043.75C1343.1 1043.75 1360.39 1061.04 1360.39 1082.37C1360.39 1103.7 1343.1 1120.99 1321.77 1120.99C1300.44 1120.99 1283.14 1103.7 1283.14 1082.37C1283.14 1061.04 1300.44 1043.75 1321.77 1043.75Z" fill="#2D374C"/>
<path d="M1440 1054.95V1200.6H1294.35C1294.35 1120.16 1359.56 1054.95 1440 1054.95Z" fill="#DE2B64"/>
<path d="M299.568 117.936C267.001 117.936 240.6 91.5351 240.6 58.968C240.6 26.4008 267.001 -8.39233e-05 299.568 -8.39233e-05C332.135 -8.39233e-05 358.536 26.4008 358.536 58.968C358.536 91.5351 332.135 117.936 299.568 117.936Z" fill="#FF8B61"/>
<path d="M299.568 240C267.001 240 240.6 213.599 240.6 181.032C240.6 148.465 267.001 122.064 299.568 122.064C332.135 122.064 358.536 148.465 358.536 181.032C358.536 213.599 332.135 240 299.568 240Z" fill="#DE2B64"/>
<path d="M419.273 117.936C386.706 117.936 360.305 91.5351 360.305 58.968C360.305 26.4008 386.706 -8.39233e-05 419.273 -8.39233e-05C451.84 -8.39233e-05 478.241 26.4008 478.241 58.968C478.241 91.5351 451.84 117.936 419.273 117.936Z" fill="#DE2B64"/>
<path d="M480.6 240H420.158C386.776 240 359.715 212.939 359.715 179.558C359.715 146.176 386.776 119.115 420.158 119.115C453.539 119.115 480.6 146.176 480.6 179.558V240Z" fill="#3855AA"/>
<path d="M601.769 779.863C601.769 747.296 628.17 720.895 660.737 720.895C693.304 720.895 719.705 747.296 719.705 779.863C719.705 812.43 693.304 838.831 660.737 838.831C628.17 838.831 601.769 812.43 601.769 779.863Z" fill="#DE2B64"/>
<path d="M480.295 779.863C480.295 747.296 506.696 720.895 539.263 720.895C571.83 720.895 598.231 747.296 598.231 779.863C598.231 812.43 571.83 838.831 539.263 838.831C506.696 838.831 480.295 812.43 480.295 779.863Z" fill="#FF8B61"/>
<path d="M601.769 898.979C601.769 866.412 628.17 840.011 660.737 840.011C693.304 840.011 719.705 866.412 719.705 898.979C719.705 931.546 693.304 957.947 660.737 957.947C628.17 957.947 601.769 931.546 601.769 898.979Z" fill="#FF8B61"/>
<path d="M480 960.6V900.453C480 867.234 507.061 840.305 540.442 840.305C573.824 840.305 600.885 867.234 600.885 900.453C600.885 933.671 573.824 960.6 540.442 960.6H480Z" fill="#3855AA"/>
<path d="M58.9681 1078.54C26.4009 1078.54 3.8147e-05 1052.14 3.8147e-05 1019.57C3.8147e-05 987.001 26.4009 960.6 58.9681 960.6C91.5353 960.6 117.936 987.001 117.936 1019.57C117.936 1052.14 91.5353 1078.54 58.9681 1078.54Z" fill="#DE2B64"/>
<path d="M58.9681 1200.6C26.4009 1200.6 3.8147e-05 1174.2 3.8147e-05 1141.63C3.8147e-05 1109.06 26.4009 1082.66 58.9681 1082.66C91.5353 1082.66 117.936 1109.06 117.936 1141.63C117.936 1174.2 91.5353 1200.6 58.9681 1200.6Z" fill="#FF8B61"/>
<path d="M178.673 1078.54C146.106 1078.54 119.705 1052.14 119.705 1019.57C119.705 987.001 146.106 960.6 178.673 960.6C211.24 960.6 237.641 987.001 237.641 1019.57C237.641 1052.14 211.24 1078.54 178.673 1078.54Z" fill="#FF8B61"/>
<path d="M240 1200.6H179.558C146.176 1200.6 119.115 1173.54 119.115 1140.16C119.115 1106.78 146.176 1079.72 179.558 1079.72C212.939 1079.72 240 1106.78 240 1140.16V1200.6Z" fill="#3855AA"/>
<path d="M778.968 901.632H901.622V778.978H778.968V901.632Z" fill="#F1E3CF"/>
<path d="M839.397 892.87L786.524 839.997L839.397 787.124L892.27 839.997L839.397 892.87Z" fill="#3855AA"/>
<path d="M937.002 937.603H864.472C864.472 897.545 896.945 865.072 937.002 865.072V937.603Z" fill="#DE2B64"/>
<path d="M937.002 743.598V816.128C896.945 816.128 864.472 783.655 864.472 743.598H937.002Z" fill="#DE2B64"/>
<path d="M744.767 743.598H817.297C817.297 783.655 784.824 816.128 744.767 816.128V743.598Z" fill="#DE2B64"/>
<path d="M744.767 937.603V865.072C784.824 865.072 817.297 897.545 817.297 937.603H744.767Z" fill="#DE2B64"/>
<path d="M120.817 445.916L35.6904 360.727L120.817 275.539L205.943 360.727L120.817 445.916Z" fill="#FF8B61"/>
<path d="M120.817 403.623L77.9527 360.728L120.817 317.832L163.681 360.728L120.817 403.623Z" fill="#F1E3CF"/>
<path d="M753.769 110.349L828.543 110.349V35.5748L753.769 35.5748V110.349Z" fill="#F1E3CF"/>
<path d="M753.769 204.419H828.543V129.645H753.769V204.419Z" fill="#F1E3CF"/>
<path d="M850.251 110.349L925.025 110.349V35.5748L850.251 35.5748V110.349Z" fill="#F1E3CF"/>
<path d="M850.251 204.419H925.025V129.645H850.251V204.419Z" fill="#F1E3CF"/>
<path d="M773.065 89.8462H808.04V54.8713L773.065 54.8713V89.8462Z" fill="#2D374C"/>
<path d="M773.065 183.917H808.04V148.942H773.065V183.917Z" fill="#2D374C"/>
<path d="M869.548 89.8462H904.523V54.8713L869.548 54.8713V89.8462Z" fill="#2D374C"/>
<path d="M869.548 183.917H904.523V148.942H869.548V183.917Z" fill="#2D374C"/>
<path d="M601.416 685.916L516.289 600.727L601.416 515.538L686.543 600.727L601.416 685.916Z" fill="#2D374C"/>
<path d="M631.726 631.059H571.106V570.395H631.726V631.059Z" fill="#3855AA"/>
<path d="M600 960.6C666.274 960.6 720 1014.33 720 1080.6C720 1146.87 666.274 1200.6 600 1200.6H480V1080.6C480 1014.33 533.726 960.6 600 960.6Z" fill="#F1E3CF"/>
<path d="M551.759 1057.08C591.39 1057.08 623.518 1089.21 623.518 1128.84C623.518 1168.47 591.39 1200.6 551.759 1200.6H480L480 1128.84C480 1089.21 512.128 1057.08 551.759 1057.08Z" fill="#2D374C"/>
<path d="M600 1006.13C640.464 1006.13 673.266 1038.93 673.266 1079.39C673.266 1119.86 640.464 1152.66 600 1152.66C559.536 1152.66 526.734 1119.86 526.734 1079.39C526.734 1038.93 559.536 1006.13 600 1006.13Z" fill="#3855AA"/>
<path d="M600 1036.5C623.687 1036.5 642.889 1055.71 642.889 1079.39C642.889 1103.08 623.687 1122.28 600 1122.28C576.313 1122.28 557.111 1103.08 557.111 1079.39C557.111 1055.71 576.313 1036.5 600 1036.5Z" fill="#2D374C"/>
<path d="M360 720.6L480 720.6V840.6C480 906.874 426.274 960.6 360 960.6H240L240 840.6C240 774.326 293.726 720.6 360 720.6Z" fill="#3855AA"/>
<path d="M360 772.459C398.965 772.459 430.553 804.047 430.553 843.012C430.553 881.977 398.965 913.565 360 913.565H289.447L289.447 843.012C289.447 804.047 321.035 772.459 360 772.459Z" fill="#2D374C"/>
<path d="M432.603 720.6H480.603V768.6C480.603 808.365 448.368 840.6 408.603 840.6H360.603L360.603 792.6C360.603 752.836 392.839 720.6 432.603 720.6Z" fill="#F1E3CF"/>
<path d="M720 1080V960.6H839.397C906.004 960.6 960 1014.6 960 1081.2V1200.6H840.603C773.996 1200.6 720 1146.6 720 1080Z" fill="#3855AA"/>
<path d="M771.859 1080.6C771.859 1041.63 803.447 1010.05 842.412 1010.05C881.377 1010.05 912.965 1041.63 912.965 1080.6V1151.15H842.412C803.447 1151.15 771.859 1119.57 771.859 1080.6Z" fill="#2D374C"/>
<path d="M720 1008V959.997H768C807.765 959.997 840 992.233 840 1032V1080H792C752.235 1080 720 1047.76 720 1008Z" fill="#FF8B61"/>
<path d="M840 720.6C773.726 720.6 720 666.874 720 600.6C720 534.326 773.726 480.6 840 480.6H960V600.6C960 666.874 906.274 720.6 840 720.6Z" fill="#F1E3CF"/>
<path d="M888.241 624.118C848.61 624.118 816.482 591.99 816.482 552.359C816.482 512.728 848.61 480.6 888.241 480.6H960V552.359C960 591.99 927.872 624.118 888.241 624.118Z" fill="#DE2B64"/>
<path d="M840 675.072C799.536 675.072 766.734 642.27 766.734 601.806C766.734 561.342 799.536 528.54 840 528.54C880.464 528.54 913.266 561.342 913.266 601.806C913.266 642.27 880.464 675.072 840 675.072Z" fill="#3855AA"/>
<path d="M840 644.696C816.313 644.696 797.111 625.494 797.111 601.806C797.111 578.119 816.313 558.917 840 558.917C863.687 558.917 882.889 578.119 882.889 601.806C882.889 625.494 863.687 644.696 840 644.696Z" fill="#2D374C"/>
<path d="M1560.29 461.092C1615.98 461.092 1661.13 415.968 1661.13 360.304C1661.13 304.641 1615.98 259.516 1560.29 259.516C1504.6 259.516 1459.46 304.641 1459.46 360.304C1459.46 415.968 1504.6 461.092 1560.29 461.092Z" fill="#F1E3CF"/>
<path d="M1680 240.6C1680 306.548 1626.67 360.009 1560.88 360.009C1560.88 294.061 1614.21 240.6 1680 240.6Z" fill="#DE2B64"/>
<path d="M1559.12 356.531V360.009H1555.65C1491.78 360.009 1440 308.105 1440 244.078V240.6H1443.47C1507.34 240.6 1559.12 292.504 1559.12 356.531Z" fill="#3855AA"/>
<path d="M1555.65 361.191H1559.12V364.669C1559.12 428.696 1507.34 480.6 1443.47 480.6H1440V477.122C1440 413.095 1491.78 361.191 1555.65 361.191Z" fill="#DE2B64"/>
<path d="M1680 477.122V480.6H1676.53C1612.66 480.6 1560.88 428.696 1560.88 364.669V361.191H1564.35C1628.22 361.191 1680 413.095 1680 477.122Z" fill="#3855AA"/>
<path d="M539.4 240.6H660.6L600 301.2L539.4 240.6Z" fill="#FF8B61"/>
<path d="M720 240.6V480.6H480L720 240.6Z" fill="#3855AA"/>
<path d="M480 240.6L720 480.6H480V240.6Z" fill="#F1E3CF"/>
<path d="M420.6 1200.6H299.4L360 1140L420.6 1200.6Z" fill="#3855AA"/>
<path d="M240 1200.6L240 960.6H480L240 1200.6Z" fill="#F1E3CF"/>
<path d="M480 1200.6L240 960.6H480V1200.6Z" fill="#DE2B64"/>
<path d="M1141.2 960.6H1020L1080.6 900L1141.2 960.6Z" fill="#FF8B61"/>
<path d="M960.6 960.6V720.6H1200.6L960.6 960.6Z" fill="#3855AA"/>
<path d="M1200.6 960.6L960.6 720.6H1200.6V960.6Z" fill="#F1E3CF"/>
<path d="M1020 960.6H1141.2L1080.6 1021.2L1020 960.6Z" fill="#FF8B61"/>
<path d="M1200.6 960.6V1200.6H960.6L1200.6 960.6Z" fill="#3855AA"/>
<path d="M960.6 960.6L1200.6 1200.6H960.6V960.6Z" fill="#F1E3CF"/>
</svg>
